<svg xmlns="http://www.w3.org/2000/svg" viewBox="0 0 1200 750">
  <defs>
    <linearGradient id="bg" x1="0%" y1="0%" x2="100%" y2="100%">
      <stop offset="0%" stop-color="#1d4ed8" />
      <stop offset="100%" stop-color="#0f766e" />
    </linearGradient>
  </defs>
  <rect width="1200" height="750" fill="url(#bg)" />
  <rect x="60" y="90" width="1080" height="120" rx="20" fill="rgba(255,255,255,0.14)" />
  <rect x="80" y="130" width="220" height="42" rx="12" fill="#93c5fd" />
  <rect x="330" y="128" width="380" height="16" fill="#f8fafc" />
  <rect x="80" y="230" width="560" height="360" rx="18" fill="#ffffff" fill-opacity="0.95" />
  <rect x="110" y="270" width="170" height="16" fill="#0f172a" />
  <rect x="110" y="296" width="280" height="12" fill="#64748b" />
  <rect x="110" y="318" width="240" height="12" fill="#64748b" />
  <rect x="110" y="350" width="180" height="36" fill="#2563eb" />
  <rect x="700" y="230" width="420" height="300" rx="18" fill="#f8fafc" />
  <rect x="740" y="270" width="220" height="12" fill="#0f172a" />
  <rect x="740" y="296" width="300" height="10" fill="#64748b" />
  <rect x="740" y="320" width="240" height="10" fill="#64748b" />
  <rect x="740" y="350" width="180" height="34" fill="#e2e8f0" />
  <text x="600" y="690" text-anchor="middle" fill="#f8fafc" font-size="44" font-family="Arial" font-weight="700">Default Theme</text>
</svg>
