<svg xmlns="http://www.w3.org/2000/svg" viewBox="0 0 1200 750">
  <defs>
    <linearGradient id="bg" x1="0%" y1="0%" x2="100%" y2="100%">
      <stop offset="0%" stop-color="#14532d" />
      <stop offset="100%" stop-color="#84cc16" />
    </linearGradient>
  </defs>
  <rect width="1200" height="750" fill="url(#bg)" />
  <rect x="70" y="70" width="1060" height="610" rx="26" fill="rgba(255,255,255,0.16)" />
  <rect x="110" y="120" width="240" height="50" fill="#bbf7d0" />
  <rect x="370" y="132" width="220" height="14" fill="#d1fae5" />
  <rect x="110" y="210" width="470" height="280" rx="16" fill="#f8fafc" />
  <rect x="140" y="250" width="180" height="12" fill="#334155" />
  <rect x="140" y="276" width="290" height="11" fill="#64748b" />
  <rect x="140" y="300" width="250" height="11" fill="#64748b" />
  <rect x="140" y="324" width="290" height="11" fill="#64748b" />
  <rect x="140" y="350" width="140" height="34" fill="#22c55e" />
  <rect x="690" y="210" width="390" height="320" rx="16" fill="#052e16" fill-opacity="0.3" />
  <rect x="730" y="250" width="200" height="12" fill="#ecfccb" />
  <rect x="730" y="276" width="180" height="10" fill="#d9f99d" />
  <rect x="730" y="298" width="210" height="10" fill="#d9f99d" />
  <rect x="730" y="320" width="150" height="34" fill="#a3e635" />
  <text x="600" y="700" text-anchor="middle" fill="#f0fdf4" font-size="42" font-family="Arial" font-weight="700">Verde Theme</text>
</svg>
